<svg width="24" height="24" viewBox="0 0 24 24" fill="none" xmlns="http://www.w3.org/2000/svg">
<path d="M20 2.66667V22.4612L12.4061 19.0862L12 18.9057L11.5939 19.0862L4 22.4612V2.66667C4 2.18937 4.15357 1.81102 4.47584 1.4768C4.79703 1.14373 5.14431 0.999466 5.57017 1H5.57143H18.4286C18.8561 1 19.2042 1.14503 19.5254 1.47814C19.8477 1.81231 20.0006 2.18984 20 2.6655V2.66667ZM5.57143 2.26373e-06H18.4286C19.1357 2.26373e-06 19.7413 0.261336 20.2453 0.784002C20.7493 1.30667 21.0009 1.93422 21 2.66667L5.57143 2.26373e-06Z" fill="#FFD41F" stroke="#FFD41F" stroke-width="2"/>
</svg>
