<svg width="32" height="32" viewBox="0 0 32 32" fill="none" xmlns="http://www.w3.org/2000/svg">
<circle cx="16" cy="16" r="16" fill="#979DA3"/>
<path fill-rule="evenodd" clip-rule="evenodd" d="M26.9113 27.702C24.053 30.3684 20.2168 32 15.9996 32C11.7823 32 7.94616 30.3684 5.08789 27.702C6.52131 25.4225 9.64545 23 15.9996 23C22.3537 23 25.4778 25.4225 26.9113 27.702ZM20.2422 19.2426C19.117 20.3679 17.5909 21 15.9996 21C14.4083 21 12.8822 20.3679 11.7569 19.2426C10.6317 18.1174 9.99957 16.5913 9.99957 15C9.99957 13.4087 10.6317 11.8826 11.7569 10.7574C12.8822 9.63214 14.4083 9 15.9996 9C17.5909 9 19.117 9.63214 20.2422 10.7574C21.3674 11.8826 21.9996 13.4087 21.9996 15C21.9996 16.5913 21.3674 18.1174 20.2422 19.2426Z" fill="white"/>
</svg>
