<svg width="24" height="24" viewBox="0 0 24 24" fill="none" xmlns="http://www.w3.org/2000/svg">
<g clip-path="url(#clip0_263_3480)">
<path d="M20.0279 10.3871L19.5879 10.7206L19.6357 11.2706C19.6573 11.5192 19.668 11.7543 19.668 12C19.668 12.2462 19.6573 12.465 19.6284 12.6867L19.5533 13.2622L20.0159 13.6129L22.242 15.3004C22.326 15.3675 22.3479 15.4777 22.2957 15.5718L20.0545 19.443L20.0545 19.4429L20.0505 19.45C20.0017 19.5358 19.8996 19.5661 19.8187 19.5309L19.8187 19.5309L19.8097 19.5271L17.2297 18.4351L16.7189 18.2189L16.265 18.5378C15.8643 18.8194 15.4477 19.0644 15.0155 19.2647L14.5128 19.4977L14.4437 20.0474L14.0957 22.8194L14.0957 22.8194L14.0951 22.8249C14.0834 22.9224 13.9936 23 13.9 23H9.42396C9.33031 23 9.24054 22.9224 9.22884 22.8249L9.22885 22.8249L9.22817 22.8194L8.88017 20.0474L8.81115 19.4977L8.30842 19.2647C7.87617 19.0644 7.4596 18.8194 7.0589 18.5378L6.60503 18.2189L6.09418 18.4351L3.51418 19.5271L3.51416 19.5271L3.50523 19.5309C3.42432 19.5661 3.3222 19.5358 3.27341 19.45L3.27344 19.45L3.26938 19.443L1.0282 15.5718C0.970724 15.4682 1.00776 15.3561 1.07196 15.308L1.07197 15.308L1.07606 15.3049L3.30806 13.6129L3.75079 13.2773L3.69972 12.7241C3.65562 12.2464 3.65562 11.7656 3.69972 11.2879L3.75079 10.7347L3.30806 10.3991L1.08198 8.71158C0.997764 8.64447 0.975933 8.53403 1.0284 8.43981L3.27005 4.55588L3.27007 4.55589L3.27341 4.55001C3.3222 4.46416 3.42432 4.43389 3.50523 4.46907L3.50521 4.46911L3.51418 4.47291L6.09418 5.56491L6.60503 5.78113L7.0589 5.46219C7.4596 5.18062 7.87617 4.93562 8.30842 4.73531L8.81115 4.50234L8.88017 3.95256L9.22817 1.18056L9.22818 1.18057L9.22884 1.17515C9.2398 1.08374 9.32409 1 9.43596 1H13.912C14.0056 1 14.0954 1.07759 14.1071 1.17515L14.1071 1.17515L14.1077 1.18056L14.4557 3.95256L14.5248 4.50234L15.0275 4.73531C15.4597 4.93562 15.8763 5.18062 16.277 5.46219L16.7309 5.78113L17.2417 5.56491L19.8217 4.47291L19.8217 4.47293L19.8282 4.47016C19.8699 4.45214 19.9169 4.45018 19.96 4.46467C20.0031 4.47915 20.0393 4.50905 20.0617 4.54862L20.0617 4.54865L20.0665 4.55704L22.3077 8.42823C22.3652 8.53182 22.3281 8.64386 22.264 8.69199L22.2599 8.6951L20.0279 10.3871Z" stroke="white" stroke-width="2"/>
<path d="M11.7156 15.2C9.95191 15.2 8.51562 13.7638 8.51562 12C8.51562 10.2363 9.95191 8.80005 11.7156 8.80005C13.4793 8.80005 14.9156 10.2363 14.9156 12C14.9156 13.7638 13.4793 15.2 11.7156 15.2Z" stroke="white" stroke-width="2"/>
</g>
<defs>
<clipPath id="clip0_263_3480">
<rect width="24" height="24" fill="white"/>
</clipPath>
</defs>
</svg>
