<svg width="25" height="24" viewBox="0 0 25 24" fill="none" xmlns="http://www.w3.org/2000/svg">
<path d="M11.2305 9H13.2305V7H11.2305M12.2305 20C7.82047 20 4.23047 16.41 4.23047 12C4.23047 7.59 7.82047 4 12.2305 4C16.6405 4 20.2305 7.59 20.2305 12C20.2305 16.41 16.6405 20 12.2305 20ZM12.2305 2C10.9172 2 9.61689 2.25866 8.40363 2.7612C7.19038 3.26375 6.08799 4.00035 5.1594 4.92893C3.28404 6.8043 2.23047 9.34784 2.23047 12C2.23047 14.6522 3.28404 17.1957 5.1594 19.0711C6.08799 19.9997 7.19038 20.7362 8.40363 21.2388C9.61689 21.7413 10.9172 22 12.2305 22C14.8826 22 17.4262 20.9464 19.3015 19.0711C21.1769 17.1957 22.2305 14.6522 22.2305 12C22.2305 10.6868 21.9718 9.38642 21.4693 8.17317C20.9667 6.95991 20.2301 5.85752 19.3015 4.92893C18.373 4.00035 17.2706 3.26375 16.0573 2.7612C14.844 2.25866 13.5437 2 12.2305 2ZM11.2305 17H13.2305V11H11.2305V17Z" fill="white"/>
</svg>
