<svg width="24" height="24" viewBox="0 0 24 24" fill="none" xmlns="http://www.w3.org/2000/svg">
<g clip-path="url(#clip0_261_2814)">
<path d="M1.31572 17.5282L13.6131 5.76909L18.2309 10.387L6.46696 22.6841C6.27831 22.8813 6.01726 22.9929 5.74436 22.9929H1.24855C1.10082 22.9929 1.05774 22.9491 1.05441 22.9458L1.05429 22.9456L1.05417 22.9455C1.05081 22.9422 1.00684 22.8989 1.00684 22.7502V18.2509C1.00684 17.9779 1.11843 17.7168 1.31572 17.5282ZM19.8164 1.36653L22.6341 4.18419C23.1223 4.6724 23.1227 5.46424 22.6341 5.95325C22.634 5.95332 22.634 5.95338 22.6339 5.95344L20.6904 7.89693L16.1037 3.31021L18.0474 1.36653C18.5358 0.878149 19.3281 0.878149 19.8164 1.36653Z" stroke="white" stroke-width="2"/>
<path d="M10 23H23.5" stroke="white" stroke-width="2"/>
</g>
<defs>
<clipPath id="clip0_261_2814">
<rect width="24" height="24" fill="white"/>
</clipPath>
</defs>
</svg>
