<svg width="20" height="20" viewBox="0 0 20 20" fill="none" xmlns="http://www.w3.org/2000/svg">
<path id="Subtract" fill-rule="evenodd" clip-rule="evenodd" d="M9.75 19.5C15.1348 19.5 19.5 15.1348 19.5 9.75C19.5 4.36522 15.1348 0 9.75 0C4.36522 0 0 4.36522 0 9.75C0 15.1348 4.36522 19.5 9.75 19.5ZM6.95219 10.6859L7.90219 11.6359L8.36641 12.1001L8.83062 11.6359L9.78062 10.6859L13.0689 7.39761L14.4831 5.9834L15.4331 6.9334L14.0189 8.34761L9.78062 12.5859L9.31641 13.0501L8.36641 14.0001L7.41641 13.0501L6.95219 12.5859L5.98062 11.6143L4.56641 10.2001L5.51641 9.25006L6.93062 10.6643L6.95219 10.6859Z" fill="#121212"/>
</svg>
