<svg width="24" height="24" viewBox="0 0 24 24" fill="none" xmlns="http://www.w3.org/2000/svg">
<path fill-rule="evenodd" clip-rule="evenodd" d="M12 19.5C16.1613 19.5 19.5 16.1938 19.5 12.0338C19.5 7.8725 16.1613 4.5 12 4.5C7.83875 4.5 4.5 7.8725 4.5 12.0338C4.5 16.1938 7.83875 19.5 12 19.5Z" stroke="white" stroke-width="1.5" stroke-linecap="round" stroke-linejoin="round"/>
<path d="M15.625 12C15.625 14.002 14.002 15.625 12 15.625C9.99797 15.625 8.375 14.002 8.375 12C8.375 9.99797 9.99797 8.375 12 8.375C14.002 8.375 15.625 9.99797 15.625 12Z" stroke="white" stroke-width="1.5"/>
<path d="M2 12H4.5M19.5 12H22M12 2V4.5M12 19.5V22" stroke="white" stroke-width="1.5" stroke-linecap="square" stroke-linejoin="round"/>
</svg>
