<svg width="24" height="24" viewBox="0 0 24 24" fill="none" xmlns="http://www.w3.org/2000/svg">
<circle cx="18" cy="6" r="2" fill="#FF4040"/>
<path fill-rule="evenodd" clip-rule="evenodd" d="M12 23C13.1 23 14 22.1 14 21H10C10 22.1 10.9 23 12 23ZM21 20V19L19 17V11C19 10.625 18.9707 10.2559 18.914 9.8951C18.6204 9.96371 18.3145 10 18 10C17.6073 10 17.2278 9.9434 16.8692 9.83791C16.9548 10.2098 17 10.5987 17 11V18H7V11C7 8.2 9.2 6 12 6C12.7228 6 13.4057 6.14661 14.021 6.41231C14.0071 6.27677 14 6.13921 14 6C14 5.43401 14.1176 4.89548 14.3296 4.40748C14.2211 4.36923 14.1113 4.33338 14 4.3V4C14 2.9 13.1 2 12 2C10.9 2 10 2.9 10 4V4.3C7 5.2 5 7.9 5 11V17L3 19V20H21Z" fill="white"/>
</svg>
