<svg width="30" height="36" viewBox="0 0 30 36" fill="none" xmlns="http://www.w3.org/2000/svg">
<g id="size=m">
<path id="Vector" d="M7.96355 14.695C7.96355 10.9921 10.95 7.99451 14.6391 7.99451C18.3282 7.99451 21.3146 10.9921 21.3146 14.695C21.3146 16.4947 20.6045 18.119 19.4552 19.3234L25.0837 24.9734C27.6747 22.321 29.2707 18.6983 29.2707 14.6941C29.2791 6.57548 22.7273 0 14.6391 0C6.55083 0 0 6.57548 0 14.695C0 18.6993 1.60258 22.3294 4.18698 24.9743L9.81554 19.3243C8.66619 18.119 7.95611 16.4881 7.95611 14.6959H7.96355V14.695Z" fill="url(#paint0_linear_4128_2724)"/>
<path id="Vector_2" d="M5.68359 27.0138C7.0228 27.5064 8.97343 28.8853 10.8766 30.7942C12.7798 32.7021 14.1609 34.6529 14.6476 36.0001C15.139 34.6575 16.5145 32.7021 18.4186 30.7942C20.3217 28.8863 22.2677 27.5018 23.6116 27.0138C22.2724 26.5212 20.3217 25.1423 18.4186 23.2335C16.5154 21.3256 15.1399 19.3692 14.6476 18.0276C14.1562 19.3701 12.7807 21.3256 10.8766 23.2335C8.9725 25.1414 7.02745 26.5259 5.68359 27.0138Z" fill="#FFD41F"/>
</g>
<defs>
<linearGradient id="paint0_linear_4128_2724" x1="14.6354" y1="0" x2="14.6354" y2="24.9743" gradientUnits="userSpaceOnUse">
<stop stop-color="#FFD41F"/>
<stop offset="0.42" stop-color="#FFD41F"/>
<stop offset="1" stop-color="#FFD41F" stop-opacity="0"/>
</linearGradient>
</defs>
</svg>
