<svg width="24" height="24" viewBox="0 0 24 24" fill="none" xmlns="http://www.w3.org/2000/svg">
<g clip-path="url(#clip0_429_2680)">
<path d="M13.8001 3C15.483 3 16.86 4.35 16.86 6C16.86 7.65 15.483 9 13.8001 9C12.1171 9 10.7401 7.65 10.7401 6C10.7401 4.35 12.1171 3 13.8001 3ZM13.8001 1C10.9849 1 8.7002 3.24 8.7002 6C8.7002 8.76 10.9849 11 13.8001 11C16.6152 11 18.8999 8.76 18.8999 6C18.8999 3.24 16.6254 1 13.8001 1Z" fill="white"/>
<path d="M13.7999 15C17.1964 15 20.2257 16.94 21.7149 20H5.89509C7.37406 16.94 10.4034 15 13.8101 15M13.8101 13C9.15901 13 5.20151 15.9 3.61035 20V22H23.9996V20C22.4085 15.9 18.451 13 13.7999 13H13.8101Z" fill="white"/>
<path d="M8.1598 10H5.09987V7H3.05992V10H0V12H3.05992V15H5.09987V12H8.1598V10Z" fill="white"/>
</g>
<defs>
<clipPath id="clip0_429_2680">
<rect width="24" height="21" fill="white" transform="translate(0 1)"/>
</clipPath>
</defs>
</svg>
