<svg width="24" height="25" viewBox="0 0 24 25" fill="none" xmlns="http://www.w3.org/2000/svg">
<g id="camera">
<path id="Vector" d="M4 5.01212H7L9 3.01212H15L17 5.01212H20C20.5304 5.01212 21.0391 5.22283 21.4142 5.5979C21.7893 5.97297 22 6.48168 22 7.01212V19.0121C22 19.5425 21.7893 20.0513 21.4142 20.4263C21.0391 20.8014 20.5304 21.0121 20 21.0121H4C3.46957 21.0121 2.96086 20.8014 2.58579 20.4263C2.21071 20.0513 2 19.5425 2 19.0121V7.01212C2 6.48168 2.21071 5.97297 2.58579 5.5979C2.96086 5.22283 3.46957 5.01212 4 5.01212ZM12 8.01212C10.6739 8.01212 9.40215 8.5389 8.46447 9.47658C7.52678 10.4143 7 11.686 7 13.0121C7 14.3382 7.52678 15.61 8.46447 16.5476C9.40215 17.4853 10.6739 18.0121 12 18.0121C13.3261 18.0121 14.5979 17.4853 15.5355 16.5476C16.4732 15.61 17 14.3382 17 13.0121C17 11.686 16.4732 10.4143 15.5355 9.47658C14.5979 8.5389 13.3261 8.01212 12 8.01212ZM12 10.0121C12.7956 10.0121 13.5587 10.3282 14.1213 10.8908C14.6839 11.4534 15 12.2165 15 13.0121C15 13.8078 14.6839 14.5708 14.1213 15.1334C13.5587 15.696 12.7956 16.0121 12 16.0121C11.2044 16.0121 10.4413 15.696 9.87868 15.1334C9.31607 14.5708 9 13.8078 9 13.0121C9 12.2165 9.31607 11.4534 9.87868 10.8908C10.4413 10.3282 11.2044 10.0121 12 10.0121Z" fill="white"/>
</g>
</svg>
