<svg width="25" height="24" viewBox="0 0 25 24" fill="none" xmlns="http://www.w3.org/2000/svg">
<g id="camera">
<path id="Vector" d="M4.5 5.00003H7.5L9.5 3.00003H15.5L17.5 5.00003H20.5C21.0304 5.00003 21.5391 5.21074 21.9142 5.58582C22.2893 5.96089 22.5 6.4696 22.5 7.00003V19C22.5 19.5305 22.2893 20.0392 21.9142 20.4142C21.5391 20.7893 21.0304 21 20.5 21H4.5C3.96957 21 3.46086 20.7893 3.08579 20.4142C2.71071 20.0392 2.5 19.5305 2.5 19V7.00003C2.5 6.4696 2.71071 5.96089 3.08579 5.58582C3.46086 5.21074 3.96957 5.00003 4.5 5.00003ZM12.5 8.00003C11.1739 8.00003 9.90215 8.52681 8.96447 9.4645C8.02678 10.4022 7.5 11.6739 7.5 13C7.5 14.3261 8.02678 15.5979 8.96447 16.5356C9.90215 17.4732 11.1739 18 12.5 18C13.8261 18 15.0979 17.4732 16.0355 16.5356C16.9732 15.5979 17.5 14.3261 17.5 13C17.5 11.6739 16.9732 10.4022 16.0355 9.4645C15.0979 8.52681 13.8261 8.00003 12.5 8.00003ZM12.5 10C13.2956 10 14.0587 10.3161 14.6213 10.8787C15.1839 11.4413 15.5 12.2044 15.5 13C15.5 13.7957 15.1839 14.5587 14.6213 15.1214C14.0587 15.684 13.2956 16 12.5 16C11.7044 16 10.9413 15.684 10.3787 15.1214C9.81607 14.5587 9.5 13.7957 9.5 13C9.5 12.2044 9.81607 11.4413 10.3787 10.8787C10.9413 10.3161 11.7044 10 12.5 10Z" fill="white" fill-opacity="0.5"/>
</g>
</svg>
