<svg width="24" height="24" viewBox="0 0 24 24" fill="none" xmlns="http://www.w3.org/2000/svg">
<path d="M22.4248 9.121C22.334 8.84104 22.1628 8.594 21.9326 8.41063C21.7024 8.22726 21.4233 8.11566 21.1301 8.08975L15.5623 7.60974L13.3798 2.41974C13.2662 2.14742 13.0745 1.9148 12.829 1.75117C12.5834 1.58755 12.2949 1.50024 11.9998 1.50024C11.7047 1.50024 11.4163 1.58755 11.1707 1.75117C10.9251 1.9148 10.7335 2.14742 10.6198 2.41974L8.44389 7.60974L2.86951 8.09256C2.57517 8.11729 2.29468 8.22838 2.06322 8.41188C1.83176 8.59539 1.65964 8.84315 1.56842 9.1241C1.47721 9.40504 1.47098 9.70666 1.5505 9.99113C1.63003 10.2756 1.79177 10.5303 2.01545 10.7232L6.24451 14.4188L4.97701 19.9069C4.90999 20.1941 4.92911 20.4947 5.03199 20.7711C5.13488 21.0475 5.31695 21.2874 5.55545 21.4609C5.79394 21.6344 6.07829 21.7337 6.37293 21.7464C6.66756 21.7592 6.95942 21.6848 7.21201 21.5326L11.9933 18.6263L16.7848 21.5326C17.0374 21.6848 17.3293 21.7592 17.6239 21.7464C17.9186 21.7337 18.2029 21.6344 18.4414 21.4609C18.6799 21.2874 18.862 21.0475 18.9648 20.7711C19.0677 20.4947 19.0868 20.1941 19.0198 19.9069L17.7533 14.4132L21.9814 10.7232C22.205 10.5296 22.3665 10.2742 22.4454 9.98914C22.5243 9.70406 22.5171 9.40202 22.4248 9.121ZM20.9979 9.58974L16.7698 13.2797C16.564 13.4587 16.411 13.6905 16.327 13.95C16.2431 14.2095 16.2316 14.487 16.2936 14.7526L17.5639 20.2501L12.7761 17.3438C12.5425 17.2016 12.2743 17.1263 12.0008 17.1263C11.7273 17.1263 11.459 17.2016 11.2255 17.3438L6.4442 20.2501L7.70608 14.7563C7.76809 14.4907 7.75652 14.2132 7.6726 13.9537C7.58869 13.6942 7.43561 13.4625 7.22983 13.2835L2.99983 9.59537C2.99948 9.59257 2.99948 9.58974 2.99983 9.58693L8.57233 9.10506C8.84439 9.08108 9.10474 8.98327 9.3253 8.82219C9.54586 8.6611 9.71826 8.44286 9.82389 8.191L11.9998 3.00756L14.1748 8.191C14.2805 8.44286 14.4529 8.6611 14.6734 8.82219C14.894 8.98327 15.1543 9.08108 15.4264 9.10506L20.9998 9.58693V9.59349L20.9979 9.58974Z" fill="white"/>
</svg>
