<svg width="24" height="24" viewBox="0 0 24 24" fill="none" xmlns="http://www.w3.org/2000/svg">
<circle cx="12" cy="12" r="10" fill="#525D63"/>
<path fill-rule="evenodd" clip-rule="evenodd" d="M12 22C17.5228 22 22 17.5228 22 12C22 6.47715 17.5228 2 12 2C6.47715 2 2 6.47715 2 12C2 17.5228 6.47715 22 12 22ZM10.5943 6.52193C11.3975 5.82602 12.6026 5.82602 13.4057 6.52193L17.7367 10.2748L18.587 11.0115L17.1135 12.7119L16.2633 11.9752L13 9.14758V18H11V9.14758L7.73674 11.9752L6.88652 12.7119L5.41309 11.0115L6.26331 10.2748L10.5943 6.52193Z" fill="#2D3238"/>
</svg>
