<svg width="20" height="24" viewBox="0 0 20 24" fill="none" xmlns="http://www.w3.org/2000/svg">
<g id="size=s">
<path id="Vector" d="M5.30903 9.79667C5.30903 7.32806 7.3 5.32967 9.75939 5.32967C12.2188 5.32967 14.2097 7.32806 14.2097 9.79667C14.2097 10.9964 13.7364 12.0793 12.9701 12.8823L16.7225 16.6489C18.4498 14.8807 19.5138 12.4655 19.5138 9.79605C19.5194 4.38365 15.1516 0 9.75939 0C4.36722 0 0 4.38365 0 9.79667C0 12.4662 1.06838 14.8863 2.79132 16.6495L6.54369 12.8829C5.77746 12.0793 5.30407 10.9921 5.30407 9.79729H5.30903V9.79667Z" fill="url(#paint0_linear_4128_2723)"/>
<path id="Vector_2" d="M3.78906 18.0091C4.68186 18.3375 5.98229 19.2568 7.25107 20.5294C8.51985 21.8013 9.44057 23.1018 9.76506 24C10.0926 23.1049 11.0096 21.8013 12.279 20.5294C13.5478 19.2574 14.8452 18.3344 15.7411 18.0091C14.8483 17.6807 13.5478 16.7615 12.279 15.4889C11.0103 14.217 10.0933 12.9127 9.76506 12.0183C9.43747 12.9133 8.52047 14.217 7.25107 15.4889C5.98167 16.7608 4.68497 17.6838 3.78906 18.0091Z" fill="#FFD41F"/>
</g>
<defs>
<linearGradient id="paint0_linear_4128_2723" x1="9.75691" y1="0" x2="9.75691" y2="16.6495" gradientUnits="userSpaceOnUse">
<stop stop-color="#FFD41F"/>
<stop offset="0.42" stop-color="#FFD41F"/>
<stop offset="1" stop-color="#FFD41F" stop-opacity="0"/>
</linearGradient>
</defs>
</svg>
