<svg width="50" height="54" viewBox="0 0 50 54" fill="none" xmlns="http://www.w3.org/2000/svg">
<g id="Group 56" opacity="0.2">
<path id="Vector" d="M6.90719 12.5672C6.90719 9.40049 9.49749 6.83694 12.6972 6.83694C15.8969 6.83694 18.4872 9.40049 18.4872 12.5672C18.4872 14.1063 17.8714 15.4954 16.8745 16.5255L21.7564 21.3573C24.0036 19.089 25.388 15.9909 25.388 12.5664C25.3952 5.62338 19.7126 0 12.6972 0C5.68186 0 0 5.62338 0 12.5672C0 15.9917 1.38999 19.0962 3.63158 21.3581L8.51351 16.5263C7.51662 15.4954 6.90073 14.1007 6.90073 12.568H6.90719V12.5672Z" fill="#979DA3"/>
<path id="Vector_2" d="M4.83565 23.3729C5.97954 23.7927 7.6457 24.9676 9.27132 26.594C10.8969 28.2196 12.0766 29.8818 12.4923 31.0296C12.9121 29.8858 14.087 28.2196 15.7134 26.594C17.339 24.9684 19.0012 23.7887 20.149 23.3729C19.0051 22.9532 17.339 21.7783 15.7134 20.1519C14.0878 18.5263 12.9129 16.8594 12.4923 15.7163C12.0726 16.8601 10.8977 18.5263 9.27132 20.1519C7.6449 21.7775 5.98352 22.9572 4.83565 23.3729Z" fill="#979DA3"/>
<path id="Vector_3" d="M49.5671 15.276V0H43.6569V5.47489C42.0572 4.59639 40.235 4.10051 38.2947 4.10051C32.0664 4.10051 27 9.23726 27 15.5462C27 21.8551 32.0656 26.9999 38.2867 26.9999C44.5079 26.9999 49.5663 21.8632 49.5663 15.5462V15.276H49.5671ZM38.2875 20.9838C35.3249 20.9838 32.9252 18.5506 32.9252 15.5462C32.9252 12.5418 35.3249 10.1085 38.2875 10.1085C41.2501 10.1085 43.6498 12.5418 43.6498 15.5462C43.6498 18.5506 41.2501 20.9838 38.2875 20.9838Z" fill="#979DA3"/>
<path id="Vector_4" d="M49.5669 42.3511C49.5669 42.2623 49.5523 42.1727 49.5523 42.0839V31.0817H43.5378V32.3892C41.91 31.5202 40.0566 31.0297 38.0823 31.0297C31.744 31.0297 26.5969 36.1107 26.5969 42.3511C26.5969 48.5915 31.7521 53.6805 38.0823 53.6805C40.0566 53.6805 41.9181 53.1828 43.5378 52.3211V53.9998H49.5523V42.6264C49.5523 42.5375 49.5669 42.4479 49.5669 42.3591V42.3519V42.3511ZM38.0823 47.7298C35.0677 47.7298 32.626 45.3229 32.626 42.3511C32.626 39.3793 35.0677 36.9725 38.0823 36.9725C41.0969 36.9725 43.5378 39.3793 43.5378 42.3511C43.5378 45.3229 41.0961 47.7298 38.0823 47.7298Z" fill="#979DA3"/>
<path id="Vector_5" d="M9.39408 31.0297L16.5223 48.4094V53.5968H7.96459V48.4094L0.805923 31.0297H9.39328H9.39408Z" fill="#979DA3"/>
<path id="Vector_6" d="M19.1414 40.2983C21.7012 40.2983 23.7762 38.2236 23.7762 35.664C23.7762 33.1044 21.7004 31.0297 19.1414 31.0297C16.5825 31.0297 14.5075 33.1044 14.5075 35.664C14.5075 38.2236 16.5825 40.2983 19.1414 40.2983Z" fill="#979DA3"/>
</g>
</svg>
