<svg width="24" height="24" viewBox="0 0 24 24" fill="none" xmlns="http://www.w3.org/2000/svg">
<path d="M9.34278 18.7821L7.41078 18.2641L8.19778 15.3251C7.01977 14.8906 5.92492 14.2574 4.96078 13.4531L2.80778 15.6071L1.39378 14.1931L3.54678 12.0391C2.33086 10.5829 1.51387 8.83587 1.17578 6.96911L3.14378 6.61011C3.52123 8.68392 4.61446 10.5595 6.23291 11.91C7.85136 13.2605 9.8924 14.0001 12.0003 14.0001C14.1082 14.0001 16.1492 13.2605 17.7677 11.91C19.3861 10.5595 20.4793 8.68392 20.8568 6.61011L22.8248 6.96811C22.4865 8.83531 21.6692 10.5827 20.4528 12.0391L22.6068 14.1931L21.1928 15.6071L19.0388 13.4531C18.0746 14.2574 16.9798 14.8906 15.8018 15.3251L16.5898 18.2651L14.6578 18.7821L13.8698 15.8421C12.6321 16.0543 11.3674 16.0543 10.1298 15.8421L9.34278 18.7821Z" fill="white"/>
</svg>
