<svg width="24" height="24" viewBox="0 0 24 24" fill="none" xmlns="http://www.w3.org/2000/svg">
<g clip-path="url(#clip0_221_2060)">
<path d="M23.3751 2.67768C23.7766 3.0931 24.001 3.64836 24.0006 4.22613V17.5236C24.0002 17.6634 23.9603 17.8004 23.8855 17.9185C23.8107 18.0367 23.704 18.1313 23.5777 18.1914C23.4578 18.2446 23.326 18.2651 23.1956 18.2507C23.0653 18.2364 22.9411 18.1878 22.8356 18.1098L19.2887 15.3568H12.8226V13.3842H19.2887C19.7266 13.3842 20.1521 13.53 20.4981 13.7985L22.028 14.9859V4.22504C22.0281 4.15924 22.0025 4.096 21.9568 4.04869C21.9149 4.00537 21.8591 3.97851 21.7995 3.9726H9.23395C9.16671 3.9726 9.10222 3.99931 9.05467 4.04686C9.00713 4.09441 8.98042 4.15889 8.98042 4.22613V9.2328H7.00781V4.22613C7.00781 3.63573 7.24235 3.0695 7.65983 2.65202C8.07731 2.23454 8.64354 2 9.23395 2H21.8487C22.4262 2.01926 22.9735 2.26227 23.3751 2.67768Z" fill="white"/>
<path d="M0.000348091 20.946V10.9124C0.000104904 10.4764 0.169371 10.0575 0.472371 9.74401C0.775372 9.43056 1.18837 9.2472 1.62408 9.23267M0.000348091 20.946L0.534918 20.9445L0.266266 20.5983L1.00035 20.0286M0.000348091 20.946C0.000646591 21.0515 0.0307665 21.1548 0.0872335 21.244C0.143701 21.3331 0.224215 21.4045 0.319495 21.4499M0.000348091 20.946H0.536092L0.540507 20.9517L0.53728 20.9589L0.319495 21.4499M1.00035 20.0286V10.9124V10.9118C1.00025 10.7354 1.06874 10.5659 1.19136 10.439C1.31097 10.3153 1.47293 10.2417 1.64446 10.2327M1.00035 20.0286L2.94263 18.5211C3.11803 18.3849 3.33374 18.311 3.55577 18.311H11.1425C11.3228 18.311 11.4957 18.2394 11.6232 18.1119C11.7507 17.9845 11.8223 17.8116 11.8223 17.6313V10.9124C11.8223 10.7321 11.7507 10.5592 11.6232 10.4318C11.4957 10.3043 11.3228 10.2327 11.1425 10.2327H1.64446M1.00035 20.0286V20.946H0.559504L0.556711 20.9518L0.879405 21.3883M1.64446 10.2327H1.62408V9.23267M1.64446 10.2327C1.64877 10.2324 1.65309 10.2323 1.65742 10.2321L1.62408 9.23267M1.62408 9.23267H11.1425C11.588 9.23267 12.0153 9.40964 12.3303 9.72465C12.6453 10.0397 12.8223 10.4669 12.8223 10.9124V17.6313C12.8223 18.0768 12.6453 18.504 12.3303 18.819C12.0153 19.1341 11.588 19.311 11.1425 19.311H3.55577L0.879405 21.3883M0.879405 21.3883L0.5506 20.9647L0.549678 20.9666L0.549675 20.9666L0.319495 21.4499M0.879405 21.3883C0.799842 21.4471 0.706114 21.4838 0.60776 21.4946C0.509408 21.5054 0.409943 21.49 0.319495 21.4499M0.284909 20.5842L0.546535 20.9381L0.498414 20.5006C0.421104 20.5091 0.347436 20.538 0.284909 20.5842ZM0.498423 20.5006L0.546539 20.9381L0.724985 20.5358C0.653907 20.5043 0.575735 20.4921 0.498423 20.5006ZM0.749497 20.5471L0.560261 20.9444L1.00034 20.9431C1.00011 20.8602 0.976434 20.779 0.932052 20.7089C0.887672 20.6388 0.824389 20.5827 0.749497 20.5471Z" stroke="white" stroke-width="2" stroke-linejoin="round"/>
</g>
<defs>
<clipPath id="clip0_221_2060">
<rect width="24" height="24" fill="white"/>
</clipPath>
</defs>
</svg>
