<svg width="36" height="44" viewBox="0 0 36 44" fill="none" xmlns="http://www.w3.org/2000/svg">
<g id="size=l">
<path id="Vector" d="M9.73323 17.9606C9.73323 13.4348 13.3833 9.77106 17.8922 9.77106C22.4011 9.77106 26.0512 13.4348 26.0512 17.9606C26.0512 20.1602 25.1833 22.1454 23.7786 23.6175L30.6579 30.523C33.8246 27.2812 35.7753 22.8535 35.7753 17.9594C35.7856 8.0367 27.7779 0 17.8922 0C8.00657 0 0 8.0367 0 17.9606C0 22.8546 1.9587 27.2915 5.11742 30.5242L11.9968 23.6186C10.592 22.1454 9.72413 20.1522 9.72413 17.9617H9.73323V17.9606Z" fill="url(#paint0_linear_4128_2725)"/>
<path id="Vector_2" d="M6.94629 33.0169C8.58309 33.6189 10.9672 35.3043 13.2933 37.6373C15.6194 39.9692 17.3074 42.3535 17.9023 44.0001C18.5029 42.3592 20.184 39.9692 22.5113 37.6373C24.8374 35.3054 27.2158 33.6132 28.8583 33.0169C27.2215 32.4148 24.8374 30.7295 22.5113 28.3965C20.1852 26.0646 18.504 23.6734 17.9023 22.0337C17.3017 23.6746 15.6205 26.0646 13.2933 28.3965C10.9661 30.7283 8.58878 32.4205 6.94629 33.0169Z" fill="#FFD41F"/>
</g>
<defs>
<linearGradient id="paint0_linear_4128_2725" x1="17.8877" y1="0" x2="17.8877" y2="30.5242" gradientUnits="userSpaceOnUse">
<stop stop-color="#FFD41F"/>
<stop offset="0.42" stop-color="#FFD41F"/>
<stop offset="1" stop-color="#FFD41F" stop-opacity="0"/>
</linearGradient>
</defs>
</svg>
