<svg width="24" height="24" viewBox="0 0 24 24" fill="none" xmlns="http://www.w3.org/2000/svg">
<path d="M21.9842 10.7232L17.7561 14.4132L19.0226 19.9069C19.0897 20.1941 19.0705 20.4947 18.9677 20.7711C18.8648 21.0475 18.6827 21.2874 18.4442 21.4609C18.2057 21.6344 17.9214 21.7337 17.6267 21.7464C17.3321 21.7592 17.0402 21.6848 16.7876 21.5326L11.9961 18.6263L7.21483 21.5326C6.96223 21.6848 6.67038 21.7592 6.37574 21.7464C6.0811 21.7337 5.79676 21.6344 5.55826 21.4609C5.31976 21.2874 5.13769 21.0475 5.03481 20.7711C4.93193 20.4947 4.9128 20.1941 4.97983 19.9069L6.24451 14.4188L2.01545 10.7232C1.79177 10.5303 1.63003 10.2756 1.5505 9.99113C1.47098 9.70666 1.47721 9.40504 1.56842 9.1241C1.65964 8.84315 1.83176 8.59539 2.06322 8.41188C2.29468 8.22838 2.57517 8.11729 2.86951 8.09256L8.44389 7.60974L10.6198 2.41974C10.7335 2.14742 10.9251 1.9148 11.1707 1.75117C11.4163 1.58755 11.7047 1.50024 11.9998 1.50024C12.2949 1.50024 12.5834 1.58755 12.829 1.75117C13.0745 1.9148 13.2662 2.14742 13.3798 2.41974L15.5623 7.60974L21.1348 8.09256C21.4292 8.11729 21.7097 8.22838 21.9411 8.41188C22.1726 8.59539 22.3447 8.84315 22.4359 9.1241C22.5271 9.40504 22.5334 9.70666 22.4538 9.99113C22.3743 10.2756 22.2126 10.5303 21.9889 10.7232H21.9842Z" fill="white"/>
</svg>
