<svg width="81" height="80" viewBox="0 0 81 80" fill="none" xmlns="http://www.w3.org/2000/svg">
<path d="M58.8334 18.3411H22.1667C20.3258 18.3411 18.8334 19.8334 18.8334 21.6744V58.3411C18.8334 60.182 20.3258 61.6744 22.1667 61.6744H58.8334C60.6743 61.6744 62.1667 60.182 62.1667 58.3411V21.6744C62.1667 19.8334 60.6743 18.3411 58.8334 18.3411Z" stroke="white" stroke-width="2"/>
<path d="M32.1667 35.0077C34.0077 35.0077 35.5 33.5153 35.5 31.6744C35.5 29.8334 34.0077 28.3411 32.1667 28.3411C30.3258 28.3411 28.8334 29.8334 28.8334 31.6744C28.8334 33.5153 30.3258 35.0077 32.1667 35.0077Z" stroke="white" stroke-width="2"/>
<path d="M27.1667 53.3411L32.1667 45.0078L37.1667 53.3411L45.5001 40.0078L53.8334 53.3411" stroke="white" stroke-width="2" stroke-linecap="round" stroke-linejoin="round"/>
</svg>
