<svg width="20" height="20" viewBox="0 0 20 20" fill="none" xmlns="http://www.w3.org/2000/svg">
<g clip-path="url(#clip0_498_1933)">
<path d="M1.31475 14.6288L11.3418 5.04071L14.9595 8.65842L5.36731 18.6854C5.17866 18.8826 4.91761 18.9941 4.64471 18.9941H1.04062C1.02751 18.9941 1.0165 18.9935 1.00742 18.9926C1.0065 18.9833 1.00586 18.972 1.00586 18.9585V15.3516C1.00586 15.0786 1.11745 14.8175 1.31475 14.6288ZM16.396 1.25667L18.7441 3.60471C19.0858 3.94645 19.0861 4.50078 18.7441 4.84324C18.744 4.8433 18.7439 4.84336 18.7439 4.84342L17.2422 6.34511L13.6556 2.75854L15.1575 1.25667C15.4994 0.91477 16.0541 0.91477 16.396 1.25667Z" stroke="white" stroke-width="2"/>
<path d="M8.33301 19.1667H19.583" stroke="white" stroke-width="2"/>
</g>
<defs>
<clipPath id="clip0_498_1933">
<rect width="20" height="20" fill="white"/>
</clipPath>
</defs>
</svg>
