<svg width="21" height="21" viewBox="0 0 21 21" fill="none" xmlns="http://www.w3.org/2000/svg">
<circle cx="10.9727" cy="10.0439" r="10" fill="#2D3238"/>
<path d="M10.0964 12.0201C9.80841 10.0881 11.8484 9.30807 11.8484 8.16807C11.8484 7.56807 11.4524 7.18407 10.8284 7.18407C10.3004 7.18407 9.88041 7.46007 9.49641 7.85607L8.52441 6.96807C9.14841 6.26007 10.0004 5.76807 11.0444 5.76807C12.4844 5.76807 13.5404 6.51207 13.5404 8.04807C13.5404 9.75207 11.4524 10.3281 11.6324 12.0201H10.0964ZM10.8644 15.2121C10.2404 15.2121 9.77241 14.7081 9.77241 14.0601C9.77241 13.4001 10.2404 12.9081 10.8644 12.9081C11.5004 12.9081 11.9684 13.4001 11.9684 14.0601C11.9684 14.7081 11.5004 15.2121 10.8644 15.2121Z" fill="white"/>
</svg>
