<svg width="25" height="25" viewBox="0 0 25 25" fill="none" xmlns="http://www.w3.org/2000/svg">
<circle cx="12.9727" cy="12.0439" r="12" fill="#2D3238"/>
<path d="M11.853 14.326C11.5085 12.0757 13.9487 11.1672 13.9487 9.83937C13.9487 9.14051 13.475 8.69325 12.7286 8.69325C12.0971 8.69325 11.5947 9.01472 11.1353 9.47597L9.97266 8.44166C10.7191 7.61701 11.7382 7.04395 12.987 7.04395C14.7095 7.04395 15.9727 7.91053 15.9727 9.6996C15.9727 11.6844 13.475 12.3553 13.6904 14.326H11.853ZM12.7717 18.0439C12.0253 18.0439 11.4655 17.4569 11.4655 16.7021C11.4655 15.9334 12.0253 15.3603 12.7717 15.3603C13.5325 15.3603 14.0923 15.9334 14.0923 16.7021C14.0923 17.4569 13.5325 18.0439 12.7717 18.0439Z" fill="white"/>
</svg>
