<svg width="24" height="25" viewBox="0 0 24 25" fill="none" xmlns="http://www.w3.org/2000/svg">
<path d="M19.95 21.5C17.8667 21.5 15.8043 21.05 13.763 20.15C11.7217 19.25 9.86733 17.9667 8.2 16.3C6.53333 14.6333 5.25 12.7833 4.35 10.75C3.45 8.71667 3 6.65 3 4.55V3.5H8.9L9.825 8.525L6.975 11.4C7.34167 12.05 7.75 12.6667 8.2 13.25C8.65 13.8333 9.13333 14.375 9.65 14.875C10.1333 15.3583 10.6627 15.821 11.238 16.263C11.8133 16.705 12.434 17.1173 13.1 17.5L16 14.6L21 15.625V21.5H19.95Z" fill="white"/>
</svg>
