<svg width="24" height="24" viewBox="0 0 24 24" fill="none" xmlns="http://www.w3.org/2000/svg">
<path d="M21.4908 9.72191C21.4695 9.79781 21.4308 9.86735 21.3779 9.92506L21.3267 9.96976L17.0985 13.6598L16.647 14.0538L16.7816 14.6378L18.0482 20.1316L18.0488 20.1342C18.0711 20.2299 18.0648 20.3301 18.0305 20.4222C17.9962 20.5144 17.9355 20.5944 17.856 20.6522C17.7765 20.71 17.6817 20.7431 17.5835 20.7474C17.4856 20.7516 17.3887 20.727 17.3047 20.6766C17.3044 20.6764 17.3041 20.6762 17.3038 20.6761L12.5147 17.7713L11.9955 17.4564L11.4767 17.7718L6.69866 20.6761C6.69821 20.6763 6.69776 20.6766 6.69731 20.6769C6.61342 20.7271 6.51665 20.7516 6.41896 20.7474C6.32075 20.7431 6.22597 20.71 6.14647 20.6522C6.06697 20.5944 6.00628 20.5144 5.97199 20.4222C5.93769 20.3301 5.93132 20.2299 5.95366 20.1342L5.95429 20.1315L7.21897 14.6434L7.35344 14.0598L6.90253 13.6658L2.67347 9.97018L2.67348 9.97017L2.66856 9.96592C2.594 9.90162 2.54009 9.81673 2.51358 9.7219C2.48707 9.62708 2.48915 9.52654 2.51955 9.43289C2.54996 9.33924 2.60733 9.25666 2.68449 9.19549C2.76164 9.13432 2.85513 9.09729 2.95325 9.08905L2.9558 9.08883L8.53018 8.60601L9.1324 8.55385L9.36612 7.99639L11.5421 2.80639L11.5427 2.80482C11.5803 2.71462 11.6438 2.63756 11.7252 2.58336C11.8065 2.52916 11.9021 2.50024 11.9998 2.50024C12.0976 2.50024 12.1931 2.52916 12.2745 2.58336L12.8247 1.75762L12.2745 2.58336C12.3558 2.63756 12.4193 2.71461 12.4569 2.80482L12.458 2.80738L14.6405 7.99738L14.8745 8.5539L15.476 8.60601L21.0485 9.08883L21.0511 9.08905C21.1492 9.09729 21.2427 9.13432 21.3199 9.19549C21.397 9.25666 21.4544 9.33924 21.4848 9.43289L22.4359 9.1241L21.4848 9.4329C21.5152 9.52654 21.5173 9.62708 21.4908 9.7219L21.5816 9.74729L21.4908 9.72191Z" fill="#FFD41F" stroke="#FFD41F" stroke-width="2"/>
</svg>
